<svg width="192" height="17" viewBox="0 0 192 17" fill="none" xmlns="http://www.w3.org/2000/svg">
<path d="M20.088 7.856V17H0.96V0.199999H20.832L18.696 2.672H6.072V14.528H15.072V7.856H20.088ZM41.4848 0.199999V17H36.4448V9.848H27.5648V17H22.4288V0.199999H41.4848ZM27.6367 2.672V7.352H36.3248V2.672H27.6367ZM43.6397 17V0.199999L53.9837 6.92L64.3277 0.199999V17H59.3597V7.376L53.9837 10.784L48.6557 7.376V17H43.6397ZM83.1473 14.528L85.3073 17H66.4913V0.199999H85.3553L83.2193 2.672H71.5312V7.376H84.2273V9.848H71.5312V14.528H83.1473ZM126.789 2.672H120.573V17H115.557V2.672H109.269L107.133 0.199999H128.925L126.789 2.672ZM148.946 17V0.199999H129.89V12.368L133.97 17H148.946ZM143.93 2.672V14.528H137.762L134.906 11.288V2.672H143.93ZM171.698 17H165.77L156.722 6.68H165.218V2.672H155.954V17H150.866V0.199999H170.162V9.152H164.834L171.698 17ZM189.319 14.528L191.479 17H172.663V0.199999H191.527L189.391 2.672H177.703V7.376H190.399V9.848H177.703V14.528H189.319Z" fill="white"/>
<path d="M105.94 14.456L103.756 17H88.6121L86.4521 14.528H99.9641L100.852 13.496V9.824H87.1001V2.864L89.3801 0.199999H106.516L104.404 2.672H93.1961L92.1161 3.896V7.352H105.94V14.456Z" fill="#EF2F44"/>
</svg>
