<svg width="383" height="34" viewBox="0 0 383 34" fill="none" xmlns="http://www.w3.org/2000/svg">
<path d="M39.176 15.712V34H0.92V0.399998H40.664L36.392 5.344H11.144V29.056H29.144V15.712H39.176ZM81.9695 0.399998V34H71.8895V19.696H54.1295V34H43.8575V0.399998H81.9695ZM54.2735 5.344V14.704H71.6495V5.344H54.2735ZM86.2794 34V0.399998L106.967 13.84L127.655 0.399998V34H117.719V14.752L106.967 21.568L96.3114 14.752V34H86.2794ZM165.295 29.056L169.615 34H131.983V0.399998H169.711L165.439 5.344H142.062V14.752H167.455V19.696H142.062V29.056H165.295ZM252.578 5.344H240.146V34H230.114V5.344H217.538L213.266 0.399998H256.85L252.578 5.344ZM296.891 34V0.399998H258.779V24.736L266.939 34H296.891ZM286.859 5.344V29.056H274.523L268.811 22.576V5.344H286.859ZM342.397 34H330.541L312.445 13.36H329.437V5.344H310.909V34H300.733V0.399998H339.325V18.304H328.669L342.397 34ZM377.638 29.056L381.958 34H344.326V0.399998H382.054L377.782 5.344H354.406V14.752H379.798V19.696H354.406V29.056H377.638Z" fill="white"/>
<path d="M210.88 28.912L206.512 34H176.224L171.904 29.056H198.928L200.704 26.992V19.648H173.2V5.728L177.76 0.399998H212.032L207.808 5.344H185.392L183.232 7.792V14.704H210.88V28.912Z" fill="#EF2F44"/>
</svg>
